<?xml version="1.0" encoding="utf-8"?>
<!-- Generator: Adobe Illustrator 19.2.1, SVG Export Plug-In . SVG Version: 6.00 Build 0)  -->
<svg version="1.1" id="Слой_1" xmlns="http://www.w3.org/2000/svg" xmlns:xlink="http://www.w3.org/1999/xlink" x="0px" y="0px"
	 viewBox="0 0 255 262" style="enable-background:new 0 0 255 262;" xml:space="preserve">
<style type="text/css">
	.st0{fill:#39C2D7;}
	.st1{fill:#FFFFFF;}
	.st2{fill:#E18C44;}
</style>
<g>
	<g>
		<path class="st0" d="M204.4,106.5c-24.3,0-43.9-19.7-43.9-43.9c0-6.6,1.5-12.6,4.1-18.6H134v89h89v-30.6
			C217,105,211,106.5,204.4,106.5z"/>
		<circle class="st0" cx="201.6" cy="65.4" r="21.4"/>
	</g>
	<g>
		<path class="st1" d="M53.6,106.5c24.3,0,43.9-19.7,43.9-43.9c0-6.6-1.5-12.6-4.1-18.6H124v89H35v-30.6
			C40.6,105,46.9,106.5,53.6,106.5z"/>
		<circle class="st1" cx="56.4" cy="65.4" r="21.4"/>
	</g>
	<g>
		<path class="st1" d="M204.4,169.5c-24.3,0-43.9,19.7-43.9,43.9c0,6.6,1.5,12.9,4.1,18.6H134v-89h89v30.6
			C217,171,211,169.5,204.4,169.5z"/>
		<circle class="st1" cx="201.6" cy="210.6" r="21.4"/>
	</g>
	<g>
		<path class="st1" d="M53.6,169.5c24.3,0,43.9,19.7,43.9,43.9c0,6.6-1.5,12.9-4.1,18.6H124v-89H35v30.6
			C40.6,171,46.9,169.5,53.6,169.5z"/>
		<circle class="st1" cx="56.4" cy="210.6" r="21.4"/>
	</g>
</g>
<circle class="st2" cx="22.5" cy="71" r="0"/>
</svg>
