<?xml version="1.0" encoding="UTF-8" standalone="no"?>
<!-- Created with Inkscape (http://www.inkscape.org/) -->

<svg
   xmlns:dc="http://purl.org/dc/elements/1.1/"
   xmlns:cc="http://creativecommons.org/ns#"
   xmlns:rdf="http://www.w3.org/1999/02/22-rdf-syntax-ns#"
   xmlns:svg="http://www.w3.org/2000/svg"
   xmlns="http://www.w3.org/2000/svg"
   xmlns:xlink="http://www.w3.org/1999/xlink"
   version="1.1"
   width="100"
   height="100"
   viewBox="-27 24 100 100"
   id="unknown"
   xml:space="preserve"><metadata
     id="metadata31"><rdf:RDF><cc:Work
         rdf:about=""><dc:format>image/svg+xml</dc:format><dc:type
           rdf:resource="http://purl.org/dc/dcmitype/StillImage" /><dc:title></dc:title></cc:Work></rdf:RDF></metadata><defs
     id="defs29"><defs
       id="defs7"><circle
         cx="23"
         cy="74"
         r="50"
         id="circle" /></defs><clipPath
       id="circle_1_"><use
         id="use13"
         style="overflow:visible"
         x="0"
         y="0"
         width="100"
         height="100"
         xlink:href="#circle" /></clipPath><defs
       id="defs17"><path
         d="m 36,95.9 c 0,4 4.7,5.2 7.1,5.8 7.6,2 22.8,5.9 22.8,5.9 3.2,1.1 5.7,3.5 7.1,6.6 V 124 H -27 v -9.8 c 1.3,-3.1 3.9,-5.5 7.1,-6.6 0,0 15.2,-3.9 22.8,-5.9 2.4,-0.6 7.1,-1.8 7.1,-5.8 0,-4 0,-10.9 0,-10.9 h 26 c 0,0 0,6.9 0,10.9 z"
         id="shoulders" /></defs><clipPath
       id="shoulders_1_"><use
         id="use23"
         style="overflow:visible"
         x="0"
         y="0"
         width="100"
         height="100"
         xlink:href="#shoulders" /></clipPath></defs><rect
     width="100"
     height="100"
     x="-27"
     y="24"
     id="rect3819"
     style="fill:#f5eee5;fill-opacity:1;stroke:none" /><use
     id="use20"
     style="fill:#e6c19c;overflow:visible"
     x="0"
     y="0"
     width="100"
     height="100"
     xlink:href="#shoulders" /><path
     d="m 23.2,35 c 0.1,0 0.1,0 0.2,0 0,0 0,0 0,0 3.3,0 8.2,0.2 11.4,2 3.3,1.9 7.3,5.6 8.5,12.1 2.4,13.7 -2.1,35.4 -6.3,42.4 -4,6.7 -9.8,9.2 -13.5,9.4 0,0 -0.1,0 -0.1,0 -0.1,0 -0.1,0 -0.2,0 -0.1,0 -0.1,0 -0.2,0 0,0 -0.1,0 -0.1,0 C 19.2,100.7 13.4,98.2 9.4,91.5 5.2,84.5 0.7,62.8 3.1,49.1 4.3,42.6 8.3,38.9 11.6,37 c 3.2,-1.8 8.1,-2 11.4,-2 0,0 0,0 0,0 0.1,0 0.1,0 0.2,0 l 0,0 z"
     clip-path="url(#shoulders_1_)"
     id="head-shadow"
     style="fill:#d4b08c" /><path
     d="m 22.6,40 c 19.1,0 20.7,21.427119 20.8,22.727119 1.1,11.9 -3,20.472881 -6.8,26.072881 -4,5.9 -9.8,8.1 -13.5,8.3 -0.2,0 -0.2,0 -0.3,0 -0.1,0 -0.1,0 -0.2,0 C 18.8,96.8 13,94.6 9,88.7 5.2,83.1 1.1090162,74.527942 2.2,62.527119 2.3090195,61.327905 3.5,40 22.6,40 z"
     id="head"
     style="fill:#f2cea5" /></svg>