<?xml version="1.0" encoding="utf-8"?>
<!-- Generator: Adobe Illustrator 19.2.1, SVG Export Plug-In . SVG Version: 6.00 Build 0)  -->
<svg version="1.1" id="Capa_1" xmlns="http://www.w3.org/2000/svg" xmlns:xlink="http://www.w3.org/1999/xlink" x="0px" y="0px"
	 viewBox="0 0 296.4 296.4" style="enable-background:new 0 0 296.4 296.4;" xml:space="preserve">
<style type="text/css">
	.st0{fill:#FFFFFF;}
</style>
<g>
	<path class="st0" d="M208.2,69.5v38.7L296.4,55L208.2,0.3v37.2H93.3c-51.1,0-93.1,42-93.1,93.6v50.4h32v-50.4
		c0-33.9,27.6-61.6,61.1-61.6H208.2"/>
	<path class="st0" d="M264.2,165.3c0,16.4-6.1,31.8-17.5,43.4c-11.3,11.5-26.4,17.9-42.6,17.9H88.2v-38.4L0,241.3l88.2,54.8v-37.6
		h115.9c24.9,0,48-9.7,65.4-27.4c17.3-17.6,26.7-40.9,26.7-65.8v-50.8h-32L264.2,165.3L264.2,165.3z"/>
</g>
</svg>
